<svg width="200" height="98" viewBox="0 0 200 98" fill="none" xmlns="http://www.w3.org/2000/svg">
<path d="M0 13.919C0 12.0659 2.04826 10.5497 3.90139 10.5497H67.5478C69.401 10.5497 70.9172 12.0659 70.9172 13.919V61.3225C70.9172 63.1757 69.401 64.6919 67.5478 64.6919H3.90139C2.04826 64.6919 0 63.1757 0 61.3225" fill="#A1DAF8"/>
<path d="M52.9952 42.0472C52.9952 42.7618 52.0841 43.3416 50.961 43.3416C49.8379 43.3416 48.9267 42.7618 48.9267 42.0472C48.9267 41.3327 49.8379 40.7528 50.961 40.7528C52.0841 40.7528 52.9952 41.3327 52.9952 42.0472Z" fill="white"/>
<path d="M54.0439 38.2862C54.0439 39.0008 53.1328 39.5806 52.0097 39.5806C50.8866 39.5806 49.974 39.0008 49.974 38.2862C49.974 37.5716 50.8851 36.9918 52.0097 36.9918C53.1342 36.9918 54.0439 37.5716 54.0439 38.2862Z" fill="white"/>
<path d="M51.4537 34.9562C51.4537 35.6708 50.5426 36.2506 49.4195 36.2506C48.2964 36.2506 47.3853 35.6708 47.3853 34.9562C47.3853 34.2416 48.2964 33.6618 49.4195 33.6618C50.5426 33.6618 51.4537 34.2416 51.4537 34.9562Z" fill="white"/>
<path d="M48.8636 31.6276C48.8636 32.3422 47.9524 32.922 46.8293 32.922C45.7062 32.922 44.7951 32.3422 44.7951 31.6276C44.7951 30.913 45.7062 30.3332 46.8293 30.3332C47.9524 30.3332 48.8636 30.913 48.8636 31.6276Z" fill="white"/>
<path d="M44.7951 29.0374C44.7951 29.752 43.884 30.3318 42.7609 30.3318C41.6378 30.3318 40.7253 29.752 40.7253 29.0374C40.7253 28.3229 41.6364 27.7431 42.7609 27.7431C43.8854 27.7431 44.7951 28.3229 44.7951 29.0374Z" fill="white"/>
<path d="M40.4164 27.7431C40.4164 28.4576 39.5053 29.0374 38.3822 29.0374C37.2591 29.0374 36.3479 28.4576 36.3479 27.7431C36.3479 27.0285 37.2591 26.4487 38.3822 26.4487C39.5053 26.4487 40.4164 27.0285 40.4164 27.7431Z" fill="white"/>
<path d="M35.7316 27.3107C35.7316 28.0252 34.8205 28.605 33.6974 28.605C32.5743 28.605 31.6632 28.0252 31.6632 27.3107C31.6632 26.5961 32.5743 26.0163 33.6974 26.0163C34.8205 26.0163 35.7316 26.5961 35.7316 27.3107Z" fill="white"/>
<path d="M15.8162 24.7219C15.8162 25.4365 14.905 26.0163 13.7819 26.0163C12.6588 26.0163 11.7463 25.4365 11.7463 24.7219C11.7463 24.0073 12.6574 23.4275 13.7819 23.4275C14.9064 23.4275 15.8162 24.0073 15.8162 24.7219Z" fill="white"/>
<path d="M12.6111 27.3107C12.6111 28.0252 11.7 28.605 10.5769 28.605C9.45375 28.605 8.54263 28.0252 8.54263 27.3107C8.54263 26.5961 9.45375 26.0163 10.5769 26.0163C11.7 26.0163 12.6111 26.5961 12.6111 27.3107Z" fill="white"/>
<path d="M10.0827 30.3318C10.0827 31.0464 9.17155 31.6262 8.04845 31.6262C6.92534 31.6262 6.01422 31.0464 6.01422 30.3318C6.01422 29.6172 6.92534 29.0374 8.04845 29.0374C9.17155 29.0374 10.0827 29.6172 10.0827 30.3318Z" fill="white"/>
<path d="M7.67783 33.6618C7.67783 34.3764 6.76671 34.9562 5.6436 34.9562C4.52049 34.9562 3.60938 34.3764 3.60938 33.6618C3.60938 32.9473 4.52049 32.3675 5.6436 32.3675C6.76671 32.3675 7.67783 32.9473 7.67783 33.6618Z" fill="white"/>
<path d="M6.50699 36.8065C6.50699 37.5211 5.59587 38.1009 4.47276 38.1009C3.34966 38.1009 2.43713 37.5211 2.43713 36.8065C2.43713 36.092 3.34825 35.5122 4.47276 35.5122C5.59727 35.5122 6.50699 36.092 6.50699 36.8065Z" fill="white"/>
<path d="M6.50699 40.0734C6.50699 40.7879 5.59587 41.3678 4.47276 41.3678C3.34966 41.3678 2.43713 40.7879 2.43713 40.0734C2.43713 39.3588 3.34825 38.779 4.47276 38.779C5.59727 38.779 6.50699 39.3588 6.50699 40.0734Z" fill="white"/>
<path d="M18.221 49.5075C18.221 50.222 17.3099 50.8018 16.1868 50.8018C15.0637 50.8018 14.1512 50.222 14.1512 49.5075C14.1512 48.7929 15.0623 48.2131 16.1868 48.2131C17.3113 48.2131 18.221 48.7929 18.221 49.5075Z" fill="white"/>
<path d="M22.8454 50.3708C22.8454 51.0854 21.9343 51.6652 20.8112 51.6652C19.6881 51.6652 18.7769 51.0854 18.7769 50.3708C18.7769 49.6563 19.6881 49.0765 20.8112 49.0765C21.9343 49.0765 22.8454 49.6563 22.8454 50.3708Z" fill="white"/>
<path d="M27.6551 50.9872C27.6551 51.7017 26.744 52.2815 25.6209 52.2815C24.4978 52.2815 23.5866 51.7017 23.5866 50.9872C23.5866 50.2726 24.4978 49.6928 25.6209 49.6928C26.744 49.6928 27.6551 50.2726 27.6551 50.9872Z" fill="white"/>
<path d="M32.5869 50.8018C32.5869 51.5164 31.6758 52.0962 30.5527 52.0962C29.4296 52.0962 28.5185 51.5164 28.5185 50.8018C28.5185 50.0873 29.4296 49.5075 30.5527 49.5075C31.6758 49.5075 32.5869 50.0873 32.5869 50.8018Z" fill="white"/>
<path d="M37.5188 50.3708C37.5188 51.0854 36.6076 51.6652 35.4845 51.6652C34.3614 51.6652 33.4503 51.0854 33.4503 50.3708C33.4503 49.6563 34.3614 49.0765 35.4845 49.0765C36.6076 49.0765 37.5188 49.6563 37.5188 50.3708Z" fill="white"/>
<path d="M42.5138 49.1986C42.5138 49.9132 41.6027 50.493 40.4796 50.493C39.3565 50.493 38.4453 49.9132 38.4453 49.1986C38.4453 48.484 39.3565 47.9042 40.4796 47.9042C41.6027 47.9042 42.5138 48.484 42.5138 49.1986Z" fill="white"/>
<path d="M46.8911 47.4115C46.8911 48.126 45.98 48.7058 44.8569 48.7058C43.7338 48.7058 42.8226 48.126 42.8226 47.4115C42.8226 46.6969 43.7338 46.1171 44.8569 46.1171C45.98 46.1171 46.8911 46.6969 46.8911 47.4115Z" fill="white"/>
<path d="M51.0845 45.1302C51.0845 45.8447 50.1734 46.4245 49.0503 46.4245C47.9272 46.4245 47.0161 45.8447 47.0161 45.1302C47.0161 44.4156 47.9272 43.8358 49.0503 43.8358C50.1734 43.8358 51.0845 44.4156 51.0845 45.1302Z" fill="white"/>
<path d="M65.6343 47.6571C65.6343 48.3717 64.7232 48.9515 63.6001 48.9515C62.477 48.9515 61.5659 48.3717 61.5659 47.6571C61.5659 46.9426 62.477 46.3628 63.6001 46.3628C64.7232 46.3628 65.6343 46.9426 65.6343 47.6571Z" fill="white"/>
<path d="M67.114 44.636C67.114 45.3506 66.2029 45.9304 65.0798 45.9304C63.9567 45.9304 63.0456 45.3506 63.0456 44.636C63.0456 43.9214 63.9567 43.3416 65.0798 43.3416C66.2029 43.3416 67.114 43.9214 67.114 44.636Z" fill="white"/>
<path d="M68.2863 41.3692C68.2863 42.0837 67.3752 42.6635 66.2521 42.6635C65.1289 42.6635 64.2178 42.0837 64.2178 41.3692C64.2178 40.6546 65.1289 40.0748 66.2521 40.0748C67.3752 40.0748 68.2863 40.6546 68.2863 41.3692Z" fill="white"/>
<path d="M68.7173 38.2862C68.7173 39.0008 67.8062 39.5806 66.6816 39.5806C65.5571 39.5806 64.6474 39.0008 64.6474 38.2862C64.6474 37.5716 65.5585 36.9918 66.6816 36.9918C67.8048 36.9918 68.7173 37.5716 68.7173 38.2862Z" fill="white"/>
<path d="M68.5937 34.8944C68.5937 35.609 67.6826 36.1888 66.5595 36.1888C65.4364 36.1888 64.5253 35.609 64.5253 34.8944C64.5253 34.1799 65.4364 33.6001 66.5595 33.6001C67.6826 33.6001 68.5937 34.1799 68.5937 34.8944Z" fill="white"/>
<path d="M67.6686 31.6276C67.6686 32.3422 66.7575 32.922 65.6344 32.922C64.5112 32.922 63.6001 32.3422 63.6001 31.6276C63.6001 30.913 64.5112 30.3332 65.6344 30.3332C66.7575 30.3332 67.6686 30.913 67.6686 31.6276Z" fill="white"/>
<path d="M66.5595 28.2358C66.5595 28.9504 65.6484 29.5302 64.5253 29.5302C63.4022 29.5302 62.4897 28.9504 62.4897 28.2358C62.4897 27.5212 63.4008 26.9414 64.5253 26.9414C65.6498 26.9414 66.5595 27.5212 66.5595 28.2358Z" fill="white"/>
<path d="M64.5253 24.9072C64.5253 25.6218 63.6141 26.2016 62.4896 26.2016C61.3651 26.2016 60.4554 25.6218 60.4554 24.9072C60.4554 24.1926 61.3665 23.6128 62.4896 23.6128C63.6127 23.6128 64.5253 24.1926 64.5253 24.9072Z" fill="white"/>
<path d="M61.4423 22.3171C61.4423 23.0316 60.5312 23.6114 59.4081 23.6114C58.285 23.6114 57.3739 23.0316 57.3739 22.3171C57.3739 21.6025 58.285 21.0227 59.4081 21.0227C60.5312 21.0227 61.4423 21.6025 61.4423 22.3171Z" fill="white"/>
<path d="M57.5578 19.9122C57.5578 20.6268 56.6467 21.2066 55.5236 21.2066C54.4005 21.2066 53.4893 20.6268 53.4893 19.9122C53.4893 19.1976 54.4005 18.6178 55.5236 18.6178C56.6467 18.6178 57.5578 19.1976 57.5578 19.9122Z" fill="white"/>
<path d="M53.488 17.9397C53.488 18.6543 52.5768 19.2341 51.4523 19.2341C50.3278 19.2341 49.4181 18.6543 49.4181 17.9397C49.4181 17.2252 50.3292 16.6454 51.4523 16.6454C52.5754 16.6454 53.488 17.2252 53.488 17.9397Z" fill="white"/>
<path d="M49.1106 16.2747C49.1106 16.9893 48.1995 17.5691 47.0764 17.5691C45.9533 17.5691 45.0422 16.9893 45.0422 16.2747C45.0422 15.5602 45.9533 14.9804 47.0764 14.9804C48.1995 14.9804 49.1106 15.5602 49.1106 16.2747Z" fill="white"/>
<path d="M44.7951 14.9804C44.7951 15.6949 43.884 16.2747 42.7609 16.2747C41.6378 16.2747 40.7253 15.6949 40.7253 14.9804C40.7253 14.2658 41.6364 13.686 42.7609 13.686C43.8854 13.686 44.7951 14.2658 44.7951 14.9804Z" fill="white"/>
<path d="M39.9236 14.4862C39.9236 15.2008 39.0125 15.7806 37.8894 15.7806C36.7663 15.7806 35.8552 15.2008 35.8552 14.4862C35.8552 13.7716 36.7663 13.1918 37.8894 13.1918C39.0125 13.1918 39.9236 13.7716 39.9236 14.4862Z" fill="white"/>
<path d="M35.1771 15.0421C35.1771 15.7567 34.266 16.3365 33.1429 16.3365C32.0198 16.3365 31.1086 15.7567 31.1086 15.0421C31.1086 14.3276 32.0198 13.7477 33.1429 13.7477C34.266 13.7477 35.1771 14.3276 35.1771 15.0421Z" fill="white"/>
<path d="M30.5527 16.2747C30.5527 16.9893 29.6416 17.5691 28.5185 17.5691C27.3954 17.5691 26.4843 16.9893 26.4843 16.2747C26.4843 15.5602 27.3954 14.9804 28.5185 14.9804C29.6416 14.9804 30.5527 15.5602 30.5527 16.2747Z" fill="white"/>
<path d="M26.4211 18.1868C26.4211 18.9014 25.51 19.4812 24.3869 19.4812C23.2638 19.4812 22.3526 18.9014 22.3526 18.1868C22.3526 17.4723 23.2638 16.8924 24.3869 16.8924C25.51 16.8924 26.4211 17.4723 26.4211 18.1868Z" fill="white"/>
<path d="M22.8454 19.9122C22.8454 20.6268 21.9343 21.2066 20.8112 21.2066C19.6881 21.2066 18.7769 20.6268 18.7769 19.9122C18.7769 19.1976 19.6881 18.6178 20.8112 18.6178C21.9343 18.6178 22.8454 19.1976 22.8454 19.9122Z" fill="white"/>
<path d="M19.2697 22.5024C19.2697 23.2169 18.3586 23.7967 17.2355 23.7967C16.1124 23.7967 15.2013 23.2169 15.2013 22.5024C15.2013 21.7878 16.1124 21.208 17.2355 21.208C18.3586 21.208 19.2697 21.7878 19.2697 22.5024Z" fill="white"/>
<path d="M25.0031 57.9546C25.0031 58.6692 24.092 59.249 22.9689 59.249C21.8458 59.249 20.9347 58.6692 20.9347 57.9546C20.9347 57.2401 21.8458 56.6602 22.9689 56.6602C24.092 56.6602 25.0031 57.2401 25.0031 57.9546Z" fill="white"/>
<path d="M29.8746 59.6182C29.8746 60.3328 28.9635 60.9126 27.839 60.9126C26.7145 60.9126 25.8048 60.3328 25.8048 59.6182C25.8048 58.9037 26.7159 58.3239 27.839 58.3239C28.9621 58.3239 29.8746 58.9037 29.8746 59.6182Z" fill="white"/>
<path d="M34.5608 60.2359C34.5608 60.9505 33.6497 61.5303 32.5266 61.5303C31.4035 61.5303 30.4923 60.9505 30.4923 60.2359C30.4923 59.5214 31.4035 58.9416 32.5266 58.9416C33.6497 58.9416 34.5608 59.5214 34.5608 60.2359Z" fill="white"/>
<path d="M39.1838 60.2359C39.1838 60.9505 38.2727 61.5303 37.1481 61.5303C36.0236 61.5303 35.1139 60.9505 35.1139 60.2359C35.1139 59.5214 36.025 58.9416 37.1481 58.9416C38.2713 58.9416 39.1838 59.5214 39.1838 60.2359Z" fill="white"/>
<path d="M44.117 59.6182C44.117 60.3328 43.2059 60.9126 42.0828 60.9126C40.9597 60.9126 40.0486 60.3328 40.0486 59.6182C40.0486 58.9037 40.9597 58.3239 42.0828 58.3239C43.2059 58.3239 44.117 58.9037 44.117 59.6182Z" fill="white"/>
<path d="M48.4326 58.9402C48.4326 59.6547 47.5214 60.2345 46.3983 60.2345C45.2752 60.2345 44.3641 59.6547 44.3641 58.9402C44.3641 58.2256 45.2752 57.6458 46.3983 57.6458C47.5214 57.6458 48.4326 58.2256 48.4326 58.9402Z" fill="white"/>
<path d="M14.6299 0.523172C14.9331 0.306974 15.5396 -0.0397849 16.0155 0.00373547C16.4914 0.0472558 16.7947 0.263453 17.0123 0.523172C17.2285 0.78289 17.4025 1.25881 17.359 1.51993C17.3155 1.77965 16.9266 2.12641 17.0558 2.29909C17.1849 2.47176 17.8911 2.16852 18.7082 2.29909C19.5252 2.42965 20.6511 3.12176 20.9544 3.07824C21.2576 3.03472 21.3882 2.86204 21.4738 2.34261C21.5608 1.82317 21.69 1.30373 22.5127 1.26021C23.3354 1.21669 23.8548 1.56345 24.2451 2.03937C24.6353 2.51528 24.808 3.07824 24.3756 3.72824C23.9432 4.37823 23.553 4.50739 23.553 5.11387C23.553 5.72035 23.2932 5.98006 23.1206 5.98006C22.9479 5.98006 22.7303 5.67683 22.7303 5.37359C22.7303 5.07035 22.2965 4.98331 22.1673 4.59443C22.0368 4.20415 21.9511 3.94443 21.8206 3.94443C21.69 3.94443 21.3446 4.33471 21.3446 4.59443C21.3446 4.85415 21.2576 7.10598 20.9544 7.67034C20.6511 8.2333 19.3961 9.09949 19.3961 9.44625C19.3961 9.79301 19.9155 9.83653 20.4784 10.1819C21.0414 10.5286 21.9076 11.6981 22.3835 12.174C22.8608 12.6499 23.727 13.2564 23.6835 13.9064C23.64 14.5564 23.4238 14.4258 23.4673 14.6855C23.5108 14.9453 24.0738 15.4647 24.29 15.8115C24.5062 16.1582 24.5497 16.5471 24.7659 16.7647C24.9821 16.9809 25.9353 18.1938 26.1951 18.3244C26.4548 18.455 26.7145 18.2374 27.1918 18.4971C27.6677 18.7568 28.1886 19.2762 28.2307 19.9262C28.2742 20.5762 28.2307 21.0086 28.0145 21.0522C27.7983 21.0957 27.5386 20.8795 27.4951 20.4457C27.4515 20.0119 27.2353 19.6665 27.0191 19.71C26.8029 19.7536 26.9321 20.836 26.4562 20.836C25.9803 20.836 26.1529 20.2295 25.9803 19.9698C25.8062 19.71 25.2446 19.2762 24.7238 18.9309C24.2044 18.5841 23.5108 18.0212 23.2511 17.7615C22.9914 17.5017 22.8608 17.0679 22.7317 16.8953C22.6011 16.7226 21.8655 15.9855 21.7349 15.8564C21.6044 15.7258 21.4317 15.5967 21.259 15.6402C21.0849 15.6837 20.2187 17.1564 20.1766 17.5888C20.1331 18.0226 21.1874 19.4756 21.4401 19.9178C21.6928 20.3614 23.9011 23.8262 24.2044 24.1295C24.5076 24.4327 24.8544 25.0392 24.7238 25.3859C24.5932 25.7327 23.8141 26.3827 22.7738 26.7281C21.7349 27.0748 20.4784 27.204 20.4349 27.3781C20.3914 27.5507 20.6946 29.0234 20.6946 29.4572C20.6946 29.891 20.4784 31.4928 20.3479 32.0558C20.2173 32.6187 19.9141 33.7011 20.0446 33.9187C20.1752 34.1349 21.127 34.4382 21.5608 34.8285C21.9946 35.2187 22.3835 35.7817 22.5997 35.9109C22.8159 36.0414 23.3354 36.5173 23.3354 36.69C23.3354 36.8627 23.4224 37.4692 22.5562 37.3835C21.69 37.2965 20.6062 36.9932 20.303 36.9497C19.9997 36.9062 18.7657 36.8009 18.1915 36.4429C17.6173 36.0835 17.7479 35.1317 17.8771 34.7849C18.0076 34.4382 18.2238 34.0493 18.2238 33.7882C18.2238 33.5271 18.0076 30.4104 17.9641 29.9766C17.9206 29.5428 17.5738 27.9845 17.4882 27.8975C17.4011 27.8104 16.6655 27.7669 16.622 27.8975C16.5785 28.028 16.5349 30.1928 16.2752 30.8864C16.0155 31.5799 15.5396 32.7058 15.4525 33.1817C15.3655 33.6576 15.2785 34.222 15.2785 34.4817C15.2785 34.7414 15.4525 35.0011 15.4525 35.2609C15.4525 35.5206 15.5817 36.3868 15.2363 36.6044C14.8896 36.8206 13.8942 37.1238 13.2878 37.2108C12.6813 37.2979 12.1183 37.5141 11.4248 37.5141C10.7313 37.5141 10.3845 37.1238 10.3845 36.9076C10.3845 36.6914 11.4248 35.8673 11.8137 35.7382C12.204 35.6076 13.3299 34.959 13.3734 34.7849C13.4169 34.6123 13.5896 32.4896 13.504 32.1864C13.4169 31.8831 13.8507 27.6813 13.7637 27.5957C13.6766 27.5086 12.5072 27.2924 11.9442 27.1197C11.3813 26.9471 10.1683 26.5568 9.99565 26.123C9.82297 25.6892 11.0359 22.2679 11.5118 21.5744C11.9892 20.8809 13.9378 17.9791 13.9813 17.6758C14.0248 17.3726 14.0248 16.7226 13.8086 16.2902C13.5924 15.8564 13.1586 15.2078 12.9424 15.2078C12.7262 15.2078 10.9938 18.0661 10.8197 18.2837C10.6471 18.4999 10.1796 19.265 9.98021 19.5107C9.78086 19.7564 9.56326 20.3193 9.56326 20.7096C9.56326 21.0999 9.51974 21.3596 9.82297 21.6193C10.1262 21.879 10.0827 22.2693 9.95354 22.3985C9.82298 22.529 9.4341 22.529 9.2179 22.2258C9.0017 21.9226 9.04522 21.7499 8.91466 21.7499C8.7841 21.7499 8.5679 22.2693 8.09199 22.3999C7.61467 22.5304 7.31143 22.3564 7.13875 22.2272C6.96607 22.0966 6.61931 21.6642 6.70635 21.2304C6.79339 20.7966 6.96607 20.5805 7.18227 20.4078C7.39847 20.2351 7.87579 20.3207 8.09199 20.0175C8.30818 19.7143 8.81218 19.0179 8.88518 18.7596C8.95818 18.5013 9.95494 16.7254 10.1276 16.3786C10.3003 16.0319 10.9068 14.0398 11.123 13.78C11.3392 13.5203 11.0359 13.0865 11.123 12.9138C11.21 12.7412 11.7294 11.6138 12.2054 11.1815C12.6813 10.7477 13.2442 10.1847 14.0248 9.92498C14.804 9.66526 15.8878 9.79442 16.0169 9.70878C16.1475 9.62174 16.5363 9.3185 16.5799 9.1023C16.6234 8.8861 15.9299 8.10555 15.8007 7.67315C15.6701 7.23935 15.4104 6.11344 15.541 5.29076C15.6716 4.46808 15.8007 4.0778 16.0169 3.73105C16.2331 3.38429 16.2331 3.25513 16.0604 3.03753C15.8863 2.82133 15.541 3.03753 15.454 3.25372C15.3669 3.46992 15.0202 4.03288 14.6313 3.98936C14.241 3.94584 14.0683 3.29584 14.0248 2.64725C13.9813 1.99725 13.8086 1.52133 13.9813 1.17457C14.1554 0.827814 14.6313 0.524577 14.6313 0.524577" fill="#005496"/>
<path d="M33.2117 29.9766C33.9473 29.6299 37.1973 28.2878 37.1973 27.5943C37.1973 26.9007 36.5908 26.9878 36.5038 25.6878C36.4167 24.3878 36.72 23.0457 37.4135 22.5698C38.107 22.0938 39.3621 21.2698 41.0088 21.7906C42.6556 22.31 43.8671 23.0471 44.1283 23.9133C44.388 24.7795 44.6042 26.5554 44.388 27.2489C44.1718 27.9424 44.2139 28.0716 44.3009 28.2021C44.388 28.3327 44.4736 28.8086 44.2574 28.9813C44.0412 29.154 42.7848 29.8475 42.7848 30.1507C42.7848 30.454 43.088 31.3202 43.6509 32.1864C44.2139 33.0525 44.5171 34.6979 44.7769 35.0882C45.0366 35.4785 45.4704 36.6914 45.7301 36.9511C45.9898 37.2108 46.5963 37.7303 46.856 37.8173C47.1157 37.9044 48.3287 38.0335 48.5884 38.1641C48.8481 38.2946 49.2384 38.727 48.7611 39.1173C48.2852 39.5076 46.9417 38.9011 46.8981 38.9011C46.8546 38.9011 47.2014 39.2914 46.9852 39.5076C46.769 39.7238 46.1625 39.377 45.9884 39.2044C45.8143 39.0317 45.2949 39.0317 45.0352 38.8141C44.7755 38.5979 43.8222 37.8608 43.5625 37.472C43.3028 37.0817 42.9125 36.165 42.6317 35.6497C42.351 35.1331 42.1769 34.5266 41.8736 33.878C41.5704 33.228 41.5269 33.0554 41.3977 33.0554C41.2686 33.0554 40.575 33.878 39.838 34.3975C39.1024 34.9169 37.975 35.5234 37.5427 35.8266C37.1103 36.1299 36.3297 36.4331 36.2005 36.6493C36.07 36.8655 36.157 37.9914 36.6765 38.2525C37.1959 38.5122 37.7589 38.5122 38.3653 38.6863C38.9718 38.859 39.101 39.4655 38.6686 39.7252C38.2348 39.9849 37.8894 39.3784 37.6297 39.3784C37.37 39.3784 37.457 39.7238 37.1313 39.7898C36.807 39.8544 36.07 39.8122 35.6811 39.5511C35.2908 39.2914 34.5987 38.772 34.3811 38.2511C34.1649 37.7317 34.1214 38.4238 33.7746 38.5979C33.4279 38.7706 32.4746 38.7706 31.8696 38.3382C31.2631 37.9044 30.4404 37.0382 30.2242 37.0817C30.008 37.1252 29.8775 37.4285 29.8775 37.6447C29.8775 37.8608 28.7515 39.2044 28.058 39.4206C27.3645 39.6368 27.2353 39.6803 26.7145 39.1173C26.1951 38.5544 26.0645 37.8173 25.8918 37.8173C25.7192 37.8173 25.6321 38.2511 25.2418 38.1641C24.8516 38.077 24.8516 37.3849 24.808 36.6914C24.7645 35.9979 24.7645 35.609 25.1983 34.959C25.6307 34.309 25.8483 33.8331 26.3242 33.7896C26.8001 33.7461 26.8437 34.5687 27.1904 34.5687C27.5372 34.5687 27.5372 32.9234 28.1437 32.2734C28.7501 31.6234 28.8372 31.2766 29.9631 31.0169C31.089 30.7572 33.2117 29.978 33.2117 29.978" fill="#005496"/>
<path d="M58.3342 28.7637C58.6009 28.6907 58.9842 28.504 58.9406 28.1572C58.8971 27.8104 57.7712 26.7982 58.3342 24.7921C58.8971 22.786 60.586 22.0924 62.0151 22.31C63.4443 22.5262 64.5702 23.6957 64.6137 24.5183C64.6572 25.341 64.3975 27.1605 64.0072 27.8104C63.617 28.4604 62.8813 29.0234 62.8378 29.2831C62.7943 29.5428 63.2702 29.8461 63.8767 29.8896C64.4832 29.9331 65.8323 29.759 66.0457 29.8896C66.2591 30.0202 66.1299 30.3655 66.7785 30.1058C67.4285 29.8461 68.6415 29.5428 69.2915 29.5428C69.9415 29.5428 71.6739 29.3266 71.89 29.1961C72.1062 29.0655 72.4965 28.4604 72.6692 28.4169C72.8419 28.3734 73.2322 28.4169 73.4484 28.2442C73.6646 28.0716 74.2289 27.8119 74.5308 28.2878C74.834 28.7637 74.6613 30.3669 73.7502 30.5831C72.8405 30.7993 73.1002 30.3669 72.5372 30.4104C71.9743 30.454 71.2808 30.9734 70.8049 31.104C70.3289 31.2345 70.0257 31.1475 69.7646 31.2766C69.5048 31.4072 68.2484 31.8831 67.3822 31.8396C66.516 31.7961 66.516 31.7526 66.603 32.4026C66.6901 33.0526 66.4725 33.0961 66.1692 33.1396C65.866 33.1831 63.6998 32.4025 63.398 32.7058C63.0947 33.009 62.4882 34.0914 62.185 35.0447C61.8818 35.9979 61.8818 36.3447 61.7526 36.9511C61.622 37.5576 61.2332 38.1206 61.1897 38.5108C61.1461 38.9011 60.8429 39.6368 61.0591 39.9835C61.2753 40.3303 63.5706 40.0706 64.4368 40.4594C65.303 40.8497 65.5192 41.4127 66.0401 41.8015C66.5595 42.1918 68.1192 44.0113 68.466 44.3566C68.8127 44.7034 69.6789 46.002 70.4146 46.6955C71.1516 47.389 71.584 48.1682 71.8437 48.2987C72.1034 48.4293 75.4391 48.2117 75.6117 48.126C75.7858 48.039 74.6585 44.1418 78.47 43.4048C82.2816 42.6692 84.3172 46.0034 83.1043 48.5163C81.8913 51.0279 78.946 51.3311 77.1701 50.076C76.5874 49.6633 76.0441 49.1228 76.0441 49.1228C76.0441 49.1228 74.7512 50.493 73.8779 50.639C72.5794 50.8552 71.7553 50.6825 71.5826 50.7696C71.4085 50.8566 70.5423 51.6793 69.9794 51.2455C69.4164 50.8117 69.3729 50.076 69.3294 49.9034C69.2858 49.7307 69.5456 49.2098 69.5456 49.0807C69.5456 48.9515 66.7729 47.0886 66.0373 46.8289C65.3016 46.5691 63.7854 44.8803 63.2646 44.7932C62.7452 44.7062 62.2692 44.4465 61.7049 44.8803C61.1419 45.3141 60.9692 45.227 61.0114 45.4867C61.0549 45.7465 61.4016 47.5659 61.3581 48.5191C61.3146 49.4724 61.4452 50.5548 61.4887 50.8145C61.5322 51.0742 61.6192 51.9404 61.4887 52.1566C61.3581 52.3728 60.5354 52.8066 60.4498 52.9357C60.3628 53.0663 59.3239 54.1052 58.9771 54.3214C58.6304 54.5376 56.7253 55.9667 56.3785 56.1843C56.0318 56.4005 53.4767 57.7876 53.3462 58.0038C53.217 58.22 52.7832 58.7394 52.7832 59.0005C52.7832 59.2616 52.3929 61.0362 52.3059 61.2088C52.2202 61.3815 52.0897 61.7283 51.6994 61.6426C51.3091 61.5556 51.2656 60.9926 51.18 60.7764C51.0929 60.5602 50.2703 56.7052 50.4864 56.1857C50.7026 55.6663 51.3091 55.7955 51.7429 55.6663C52.1767 55.5357 52.7832 55.5793 53.0864 55.4501C53.3897 55.3195 54.3864 53.7177 55.2526 52.8515C56.1188 51.9853 57.3318 51.3788 57.4188 51.2483C57.5045 51.1177 57.2883 47.09 57.2447 47.0465C57.2012 47.0029 57.1156 45.9205 57.0285 45.8335C56.9415 45.7465 54.5605 45.227 53.9962 43.8849C53.4332 42.5428 53.6059 41.8928 54.0832 40.1169C54.5605 38.341 54.3864 36.3924 54.517 35.0924C54.6476 33.7924 54.7767 33.8359 54.6476 33.7924C54.517 33.7489 53.4346 34.3989 53.2619 34.4859C53.0892 34.573 51.8328 35.3956 51.7457 35.5683C51.6601 35.741 51.1828 40.246 51.3133 40.5493C51.4439 40.8525 52.3101 42.5414 51.2263 42.4558C50.1439 42.3687 50.7504 42.0655 49.9698 41.8493C49.1907 41.6331 49.4939 41.1558 49.7971 40.7234C50.1004 40.2896 49.5809 36.3489 49.9698 35.0489C50.3601 33.7489 52.8281 32.7535 52.9152 32.4503C53.0008 32.147 52.6119 32.0165 52.6119 31.7146C52.6119 31.4128 53.2619 30.5452 53.954 30.1985C54.6476 29.8517 54.604 29.1596 55.08 29.029C55.5559 28.8985 57.8526 28.8985 58.3285 28.7693" fill="#005496"/>
<path d="M52.9952 57.7075C52.9952 58.4221 52.0841 59.0019 50.961 59.0019C49.8379 59.0019 48.9267 58.4221 48.9267 57.7075C48.9267 56.993 49.8379 56.4132 50.961 56.4132C52.0841 56.4132 52.9952 56.993 52.9952 57.7075Z" fill="white"/>
<path d="M57.065 55.7351C57.065 56.4497 56.1539 57.0295 55.0294 57.0295C53.9049 57.0295 52.9952 56.4497 52.9952 55.7351C52.9952 55.0205 53.9063 54.4407 55.0294 54.4407C56.1525 54.4407 57.065 55.0205 57.065 55.7351Z" fill="white"/>
<path d="M60.6407 53.5759C60.6407 54.2905 59.7296 54.8703 58.6065 54.8703C57.4834 54.8703 56.5709 54.2905 56.5709 53.5759C56.5709 52.8613 57.482 52.2815 58.6065 52.2815C59.731 52.2815 60.6407 52.8613 60.6407 53.5759Z" fill="white"/>
<path d="M63.6001 50.6783C63.6001 51.3929 62.689 51.9727 61.5659 51.9727C60.4428 51.9727 59.5303 51.3929 59.5303 50.6783C59.5303 49.9637 60.4414 49.3839 61.5659 49.3839C62.6904 49.3839 63.6001 49.9637 63.6001 50.6783Z" fill="white"/>
<path d="M6.53086 37.9886C6.91412 37.6053 7.52761 37.9886 7.65677 38.1613C7.78733 38.334 8.09057 38.7678 8.3924 38.9404C8.69564 39.1131 9.2586 39.634 9.56184 40.1969C9.86508 40.7599 9.9086 42.2761 10.1248 42.5793C10.341 42.8825 11.728 44.5279 11.6831 45.2214C11.6396 45.9149 10.8604 46.6506 10.904 46.7811C10.9475 46.9117 12.1604 47.6908 12.4201 48.9038C12.6799 50.1167 11.9863 50.2894 11.7701 50.2894C11.554 50.2894 11.0766 50.1167 10.991 50.2024C10.904 50.2894 10.7313 51.0251 10.7313 52.151C10.7313 53.2769 10.2989 54.2301 10.3845 54.2736C10.4716 54.3172 11.9442 53.6236 12.8975 53.5801C13.8507 53.5366 14.6299 53.4931 14.7169 53.4075C14.8039 53.3204 14.4137 52.0639 14.9331 51.2413C15.4525 50.4186 16.1896 50.5056 16.796 50.0283C16.9673 49.8935 17.7493 49.5089 18.6155 49.2056C18.9973 49.0723 20.6076 49.2056 20.6946 48.9894C20.7452 48.8645 19.872 48.3394 19.5252 46.3473C19.3988 45.6229 19.4817 43.9214 19.5252 43.489C19.5378 43.3585 19.0058 43.0552 19.0928 44.0085C19.1237 44.3524 18.9173 48.7676 18.5734 49.1621C18.3937 49.3671 17.2046 49.9918 17.1007 49.8556C16.9968 49.718 17.1442 47.1265 17.0137 46.4344C16.8831 45.7408 16.8831 42.8825 18.0104 42.0599C19.1363 41.2372 19.8734 42.2325 20.2187 42.1034C20.5655 41.9728 21.6914 39.5483 24.4205 40.5437C27.1497 41.5404 27.1932 44.4858 27.2367 45.9585C27.2802 47.4311 26.3705 49.3797 26.4576 49.5103C26.5432 49.6408 27.2802 49.3797 27.6705 51.2862C28.0608 53.1927 28.1043 54.6639 27.8867 56.1801C27.6705 57.6963 27.8432 61.2481 27.8867 61.3338C27.9302 61.4208 31.9145 62.2 32.1321 61.8967C32.3483 61.5935 32.3047 60.9 32.6515 60.6403C32.9983 60.3805 34.4274 59.2981 35.6404 59.3838C36.8533 59.4708 37.2857 60.5532 37.3292 60.987C37.3728 61.4208 37.2857 62.2435 36.289 62.4597C35.2936 62.6759 34.6857 63.2388 34.4695 63.5421C34.2533 63.8453 32.7498 63.8874 31.8274 63.9324C29.9139 64.025 26.4028 62.7082 25.9803 62.3727C24.94 61.55 25.2109 59.5143 25.1576 59.6C25.034 59.7965 23.2918 61.192 21.8655 62.0259C20.7789 62.6605 19.9113 62.7924 19.8734 62.8486C19.7891 62.9749 20.5781 64.4995 23.3381 64.6175C23.4097 64.6203 23.4813 64.6231 23.5557 64.6231C24.1706 64.6329 24.6381 64.6231 25.159 64.8828C25.326 64.967 26.4871 64.4616 28.1914 64.2328C29.0885 64.1121 30.0992 64.1275 31.1367 64.0166C34.2491 63.6839 37.523 63.302 38.0663 63.4101C40.0149 63.8004 40.7954 64.3634 40.8825 64.6231C40.9695 64.8828 40.8825 64.9263 41.2292 64.9263C41.576 64.9263 42.1825 65.3601 41.5325 65.5763C40.8825 65.7925 35.0353 66.2263 34.9047 66.3119C34.7742 66.399 34.4709 67.1346 33.5626 67.1781C32.6529 67.2217 33.0432 66.9619 31.6997 66.8749C30.3562 66.7879 27.4543 67.0476 25.9395 67.2652C24.4233 67.4814 23.6863 67.4379 23.5572 67.5684C23.428 67.699 22.5618 68.5217 21.0021 68.3476C19.4424 68.1749 19.01 67.3087 19.5294 66.0958C20.0488 64.8828 19.3132 66.2684 17.9262 64.9263C16.5405 63.5842 16.7567 63.1939 16.6276 63.0634C16.497 62.9328 10.4337 61.8939 8.1383 60.8551C5.84295 59.8162 2.68001 59.7291 1.85733 57.5194C1.03465 55.3111 3.20085 54.0111 4.1962 51.932C5.19296 49.8528 6.44803 47.5575 6.40451 47.1237C6.36099 46.6913 5.66887 46.8204 4.80127 45.2607C4.36888 44.483 4.24955 43.9326 4.46434 43.5859C4.84058 42.9766 5.99598 43.1198 6.14479 43.1395C6.58982 43.1956 6.96746 43.6154 7.14014 43.4862C7.31282 43.3556 7.14014 42.8362 7.18366 42.4895C7.22718 42.1427 7.39986 41.7959 6.74986 40.67C6.09986 39.5441 6.14338 38.3747 6.53366 37.9844" fill="#005496"/>
<path d="M7.67783 43.3416C7.67783 44.0562 6.76671 44.636 5.6436 44.636C4.52049 44.636 3.60938 44.0562 3.60938 43.3416C3.60938 42.627 4.52049 42.0472 5.6436 42.0472C6.76671 42.0472 7.67783 42.627 7.67783 43.3416Z" fill="white"/>
<path d="M10.5754 45.7465C10.5754 46.461 9.66432 47.0408 8.54122 47.0408C7.41811 47.0408 6.50699 46.461 6.50699 45.7465C6.50699 45.0319 7.41811 44.4521 8.54122 44.4521C9.66432 44.4521 10.5754 45.0319 10.5754 45.7465Z" fill="white"/>
<path d="M13.7819 47.9042C13.7819 48.6188 12.8708 49.1986 11.7463 49.1986C10.6218 49.1986 9.71207 48.6188 9.71207 47.9042C9.71207 47.1897 10.6232 46.6098 11.7463 46.6098C12.8694 46.6098 13.7819 47.1897 13.7819 47.9042Z" fill="white"/>
<path d="M90.0984 64.3353V37.2642C90.0984 36.5903 90.5028 36.1846 91.178 36.1846H94.8211C95.495 36.1846 95.9007 36.5889 95.9007 37.2642V64.3353C95.9007 65.0091 95.4964 65.4149 94.8211 65.4149H91.178C90.5042 65.4149 90.0984 65.0105 90.0984 64.3353Z" fill="#005496"/>
<path d="M99.2265 59.7488C98.912 59.1648 99.0917 58.6243 99.6308 58.2649L102.599 56.152C103.138 55.7477 103.633 55.8376 104.083 56.3767C105.477 58.0403 108.534 60.1096 112.043 60.1096C115.551 60.1096 116.584 58.8503 116.584 57.007C116.584 54.5783 111.998 53.7696 109.749 53.0045C107.455 52.2394 99.9902 50.8004 99.9902 44.4156C99.9902 38.0307 105.477 35.6469 111.412 35.6469C116.494 35.6469 120.765 38.2104 122.385 41.0434C122.699 41.6275 122.475 42.123 121.936 42.4824L119.058 44.3257C118.519 44.6851 118.068 44.5953 117.574 44.1011C116.359 42.7969 113.751 41.4478 110.693 41.4478C108.04 41.4478 106.646 42.4824 106.646 44.1011C106.646 46.5298 110.963 47.2486 113.257 48.0137C115.461 48.7788 123.06 50.6221 123.06 56.7375C123.06 62.8528 118.429 65.9554 111.414 65.9554C105.253 65.9554 101.026 62.9426 99.2279 59.7502L99.2265 59.7488Z" fill="#005496"/>
<path d="M126.208 64.3353V37.2642C126.208 36.5903 126.612 36.1846 127.287 36.1846H139.834C144.196 36.1846 148.737 39.5118 148.737 45.8082C148.737 52.1046 144.196 55.4318 139.834 55.4318H132.01V64.3353C132.01 65.0091 131.606 65.4149 130.93 65.4149H127.287C126.613 65.4149 126.208 65.0105 126.208 64.3353ZM138.798 49.7658C141.002 49.7658 142.935 48.2369 142.935 45.8082C142.935 43.3795 141.047 41.8058 138.888 41.8058H132.007V49.7658H138.798Z" fill="#005496"/>
<path d="M145.858 64.1556L156.876 37.0396C157.1 36.5005 157.549 36.1846 158.135 36.1846H160.743C161.327 36.1846 161.778 36.4991 162.003 37.0396L172.975 64.1556C173.29 64.8744 172.93 65.4149 172.12 65.4149H168.208C167.624 65.4149 167.218 65.1004 166.993 64.5599L165.42 60.6023H153.414L151.84 64.5599C151.615 65.099 151.211 65.4149 150.625 65.4149H146.713C145.903 65.4149 145.543 64.8758 145.858 64.1556ZM163.35 55.2971L159.438 45.359L155.525 55.2971H163.349H163.35Z" fill="#005496"/>
<path d="M174.817 64.3353V37.2642C174.817 36.5903 175.222 36.1846 175.897 36.1846H185.655C194.199 36.1846 200 42.1202 200 50.799C200 59.4778 194.199 65.4135 185.655 65.4135H175.897C175.223 65.4135 174.817 65.0091 174.817 64.3339V64.3353ZM185.655 59.7488C188.533 59.7488 194.244 58.0852 194.199 50.8004C194.154 43.5606 188.533 41.8072 185.655 41.8072H180.618V59.7488H185.655Z" fill="#005496"/>
<path d="M1.88969 82.5731H1.47414C1.25935 82.5731 1.14423 82.458 1.14423 82.2432V73.5897C1.14423 73.3749 1.25935 73.2598 1.47414 73.2598H1.88969C2.10448 73.2598 2.2196 73.3749 2.2196 73.5897V82.2432C2.2196 82.458 2.10448 82.5731 1.88969 82.5731Z" fill="#005496"/>
<path d="M9.65457 78.5187V82.2432C9.65457 82.458 9.53945 82.5731 9.32466 82.5731H8.95263C8.73784 82.5731 8.62272 82.458 8.62272 82.2432V78.6619C8.62272 77.4012 7.73406 76.7849 6.75977 76.7849C5.78547 76.7849 4.91085 77.4012 4.91085 78.6619V82.2432C4.91085 82.458 4.79573 82.5731 4.58094 82.5731H4.20891C3.99412 82.5731 3.879 82.458 3.879 82.2432V76.3118C3.879 76.097 3.99412 75.9819 4.20891 75.9819H4.58094C4.79573 75.9819 4.91085 76.097 4.91085 76.3118V76.8705C5.41204 76.1826 6.21506 75.8822 7.03071 75.8822C8.34896 75.8822 9.65317 76.6558 9.65317 78.5187H9.65457Z" fill="#005496"/>
<path d="M14.0375 76.799H12.7908V80.8534C12.7908 81.5553 13.2204 81.7266 13.7076 81.7266H13.9659C14.1807 81.7266 14.2958 81.8417 14.2958 82.0565V82.2432C14.2958 82.458 14.1807 82.5731 13.9659 82.5731H13.3356C12.3332 82.5731 11.745 82.0003 11.745 80.9966V76.799H11.1581C10.9433 76.799 10.8282 76.6838 10.8282 76.469V76.3118C10.8282 76.097 10.9433 75.9819 11.1581 75.9819H11.745V74.3057C11.745 74.0909 11.8601 73.9757 12.0749 73.9757H12.4623C12.6771 73.9757 12.7922 74.0909 12.7922 74.3057V75.9819H14.0389C14.2537 75.9819 14.3688 76.097 14.3688 76.3118V76.469C14.3688 76.6838 14.2537 76.799 14.0389 76.799H14.0375Z" fill="#005496"/>
<path d="M21.516 79.2782C21.516 79.493 21.4008 79.6081 21.1861 79.6081H16.1152C16.2444 80.9264 17.1471 81.7996 18.4499 81.7996C19.2669 81.7996 19.8832 81.4837 20.2693 81.0541C20.4125 80.8969 20.5557 80.8674 20.7284 80.9825L20.9291 81.1257C21.1004 81.2549 21.1439 81.4261 21.0007 81.5848C20.4139 82.2867 19.5253 82.7023 18.4499 82.7023C16.4437 82.7023 15.1115 81.2408 15.1115 79.2782C15.1115 77.3156 16.3862 75.8682 18.3642 75.8682C20.3423 75.8682 21.516 77.3156 21.516 79.2782ZM16.1152 78.8907H20.5557C20.4125 77.6441 19.5955 76.7274 18.3642 76.7274C17.133 76.7274 16.2584 77.6006 16.1152 78.8907Z" fill="#005496"/>
<path d="M25.9859 75.9103C26.2007 75.8822 26.3299 76.01 26.3299 76.2262V76.5561C26.3299 76.7568 26.2148 76.8719 26.014 76.886C25.0692 77.0011 24.0079 77.5739 24.0079 79.0213V82.2446C24.0079 82.4594 23.8927 82.5745 23.678 82.5745H23.3059C23.0911 82.5745 22.976 82.4594 22.976 82.2446V76.3132C22.976 76.0984 23.0911 75.9833 23.3059 75.9833H23.678C23.8927 75.9833 24.0079 76.0984 24.0079 76.3132V77.2019C24.4515 76.4143 25.1829 75.9987 25.9845 75.9131L25.9859 75.9103Z" fill="#005496"/>
<path d="M33.3353 78.5187V82.2432C33.3353 82.458 33.2201 82.5731 33.0053 82.5731H32.6333C32.4185 82.5731 32.3034 82.458 32.3034 82.2432V78.6619C32.3034 77.4012 31.4147 76.7849 30.4404 76.7849C29.4662 76.7849 28.5929 77.4012 28.5929 78.6619V82.2432C28.5929 82.458 28.4778 82.5731 28.263 82.5731H27.891C27.6762 82.5731 27.5611 82.458 27.5611 82.2432V76.3118C27.5611 76.097 27.6762 75.9819 27.891 75.9819H28.263C28.4778 75.9819 28.5929 76.097 28.5929 76.3118V76.8705C29.0941 76.1826 29.8971 75.8822 30.7128 75.8822C32.031 75.8822 33.3339 76.6558 33.3339 78.5187H33.3353Z" fill="#005496"/>
<path d="M40.7843 75.9819H41.1717C41.3865 75.9819 41.5017 76.097 41.5017 76.3118V82.2432C41.5017 82.458 41.3865 82.5731 41.1717 82.5731H40.7843C40.5695 82.5731 40.4544 82.458 40.4544 82.2432V81.384C39.9532 82.1716 39.1221 82.6882 38.0046 82.6882C36.1276 82.6882 34.7953 81.2408 34.7953 79.2782C34.7953 77.3156 36.1276 75.8822 38.0046 75.8822C39.1221 75.8822 39.9532 76.3834 40.4544 77.171V76.3118C40.4544 76.097 40.5695 75.9819 40.7843 75.9819ZM40.4558 79.2782C40.4558 77.8743 39.5531 76.872 38.1351 76.872C36.7172 76.872 35.8005 77.8743 35.8005 79.2782C35.8005 80.6821 36.7313 81.6999 38.1351 81.6999C39.539 81.6999 40.4558 80.6821 40.4558 79.2782Z" fill="#005496"/>
<path d="M45.9281 76.799H44.6815V80.8534C44.6815 81.5553 45.111 81.7266 45.5982 81.7266H45.8565C46.0713 81.7266 46.1864 81.8417 46.1864 82.0565V82.2432C46.1864 82.458 46.0713 82.5731 45.8565 82.5731H45.2262C44.2238 82.5731 43.6356 82.0003 43.6356 80.9966V76.799H43.0487C42.8339 76.799 42.7188 76.6838 42.7188 76.469V76.3118C42.7188 76.097 42.8339 75.9819 43.0487 75.9819H43.6356V74.3057C43.6356 74.0909 43.7507 73.9757 43.9655 73.9757H44.3515C44.5663 73.9757 44.6815 74.0909 44.6815 74.3057V75.9819H45.9281C46.1429 75.9819 46.258 76.097 46.258 76.3118V76.469C46.258 76.6838 46.1429 76.799 45.9281 76.799Z" fill="#005496"/>
<path d="M47.5313 73.9336C47.5313 73.5476 47.8458 73.3173 48.1617 73.3173C48.4775 73.3173 48.792 73.5461 48.792 73.9336C48.792 74.3211 48.4761 74.578 48.1617 74.578C47.8472 74.578 47.5313 74.3197 47.5313 73.9336ZM48.3484 82.5731H47.9764C47.7616 82.5731 47.6464 82.458 47.6464 82.2432V76.3118C47.6464 76.097 47.7616 75.9819 47.9764 75.9819H48.3624C48.5772 75.9819 48.6923 76.097 48.6923 76.3118L48.6783 82.2432C48.6783 82.458 48.5632 82.5731 48.3484 82.5731Z" fill="#005496"/>
<path d="M50.2534 79.2782C50.2534 77.3015 51.6293 75.8682 53.6059 75.8682C55.5826 75.8682 56.9584 77.3015 56.9584 79.2782C56.9584 81.2549 55.5826 82.7023 53.6059 82.7023C51.6293 82.7023 50.2534 81.2408 50.2534 79.2782ZM55.9125 79.2782C55.9125 77.8884 54.9958 76.872 53.6059 76.872C52.2161 76.872 51.2853 77.8898 51.2853 79.2782C51.2853 80.6666 52.2161 81.6999 53.6059 81.6999C54.9958 81.6999 55.9125 80.6681 55.9125 79.2782Z" fill="#005496"/>
<path d="M64.1786 78.5187V82.2432C64.1786 82.458 64.0635 82.5731 63.8487 82.5731H63.4766C63.2619 82.5731 63.1467 82.458 63.1467 82.2432V78.6619C63.1467 77.4012 62.2581 76.7849 61.2838 76.7849C60.3095 76.7849 59.4363 77.4012 59.4363 78.6619V82.2432C59.4363 82.458 59.3212 82.5731 59.1064 82.5731H58.7343C58.5195 82.5731 58.4044 82.458 58.4044 82.2432V76.3118C58.4044 76.097 58.5195 75.9819 58.7343 75.9819H59.1064C59.3212 75.9819 59.4363 76.097 59.4363 76.3118V76.8705C59.9375 76.1826 60.7405 75.8822 61.5561 75.8822C62.8744 75.8822 64.1772 76.6558 64.1772 78.5187H64.1786Z" fill="#005496"/>
<path d="M71.629 75.9819H72.0165C72.2313 75.9819 72.3464 76.097 72.3464 76.3118V82.2432C72.3464 82.458 72.2313 82.5731 72.0165 82.5731H71.629C71.4142 82.5731 71.2991 82.458 71.2991 82.2432V81.384C70.7979 82.1716 69.9668 82.6882 68.8493 82.6882C66.9723 82.6882 65.64 81.2408 65.64 79.2782C65.64 77.3156 66.9723 75.8822 68.8493 75.8822C69.9668 75.8822 70.7979 76.3834 71.2991 77.171V76.3118C71.2991 76.097 71.4142 75.9819 71.629 75.9819ZM71.2991 79.2782C71.2991 77.8743 70.3964 76.872 68.9785 76.872C67.5605 76.872 66.6438 77.8743 66.6438 79.2782C66.6438 80.6821 67.5746 81.6999 68.9785 81.6999C70.3823 81.6999 71.2991 80.6821 71.2991 79.2782Z" fill="#005496"/>
<path d="M74.6937 82.5731H74.3216C74.1068 82.5731 73.9917 82.458 73.9917 82.2432V73.5897C73.9917 73.3749 74.1068 73.2598 74.3216 73.2598H74.6937C74.9085 73.2598 75.0236 73.3749 75.0236 73.5897V82.2432C75.0236 82.458 74.9085 82.5731 74.6937 82.5731Z" fill="#005496"/>
<path d="M79.3784 80.4097L79.7224 80.1809C79.9091 80.0658 80.0523 80.1093 80.166 80.3101C80.6251 81.0401 81.671 81.6564 83.0313 81.6564C84.636 81.6564 85.3098 81.0541 85.3098 79.9801C85.3098 78.763 83.4904 78.4766 82.6452 78.2323C81.7426 77.9894 79.45 77.602 79.45 75.6815C79.45 73.9336 80.9395 73.1025 82.9316 73.1025C84.4928 73.1025 85.7689 73.7904 86.2406 74.6791C86.3403 74.8504 86.2982 74.995 86.1114 75.1087L85.7675 75.3094C85.5808 75.4091 85.453 75.367 85.3239 75.1943C84.9223 74.6356 83.9775 74.1765 82.8165 74.1765C81.4267 74.1765 80.6672 74.7212 80.6672 75.6379C80.6672 76.7835 82.3294 77.0278 83.2461 77.2707C84.0772 77.5135 86.4989 78.0007 86.4989 79.9352C86.4989 81.7687 85.1666 82.729 82.9316 82.729C81.0827 82.729 79.7799 81.9414 79.2352 80.852C79.1496 80.6807 79.2212 80.5221 79.3784 80.4083V80.4097Z" fill="#005496"/>
<path d="M87.674 79.2782C87.674 77.3015 89.0498 75.8682 91.0264 75.8682C93.0031 75.8682 94.3789 77.3015 94.3789 79.2782C94.3789 81.2549 93.0031 82.7023 91.0264 82.7023C89.0498 82.7023 87.674 81.2408 87.674 79.2782ZM93.333 79.2782C93.333 77.8884 92.4163 76.872 91.0264 76.872C89.6366 76.872 88.7058 77.8898 88.7058 79.2782C88.7058 80.6666 89.6366 81.6999 91.0264 81.6999C92.4163 81.6999 93.333 80.6681 93.333 79.2782Z" fill="#005496"/>
<path d="M100.682 77.5304C100.296 77.1429 99.7516 76.872 98.9921 76.872C97.5741 76.872 96.642 77.8743 96.642 79.2782C96.642 80.6821 97.5727 81.6999 98.9921 81.6999C99.7516 81.6999 100.296 81.4275 100.682 81.0415C100.826 80.8842 100.983 80.8702 101.141 80.9839L101.37 81.1552C101.542 81.2844 101.585 81.4556 101.442 81.6143C100.855 82.2881 99.9944 82.6882 98.9626 82.6882C96.9859 82.6882 95.6241 81.2549 95.6241 79.2782C95.6241 77.3015 96.9859 75.8822 98.9626 75.8822C99.9944 75.8822 100.854 76.2837 101.442 76.9421C101.585 77.0994 101.557 77.2721 101.384 77.4012L101.14 77.5879C100.983 77.7171 100.824 77.6876 100.681 77.5304H100.682Z" fill="#005496"/>
<path d="M102.959 73.9336C102.959 73.5476 103.275 73.3173 103.59 73.3173C103.904 73.3173 104.22 73.5461 104.22 73.9336C104.22 74.3211 103.906 74.578 103.59 74.578C103.274 74.578 102.959 74.3197 102.959 73.9336ZM103.777 82.5731H103.404C103.19 82.5731 103.075 82.458 103.075 82.2432V76.3118C103.075 76.097 103.19 75.9819 103.404 75.9819H103.792C104.007 75.9819 104.122 76.097 104.122 76.3118L104.108 82.2432C104.108 82.458 103.993 82.5731 103.778 82.5731H103.777Z" fill="#005496"/>
<path d="M112.085 79.2782C112.085 79.493 111.97 79.6081 111.755 79.6081H106.683C106.812 80.9264 107.714 81.7996 109.017 81.7996C109.834 81.7996 110.451 81.4837 110.837 81.0541C110.98 80.8969 111.123 80.8674 111.296 80.9825L111.496 81.1257C111.668 81.2549 111.711 81.4261 111.568 81.5848C110.981 82.2867 110.093 82.7023 109.017 82.7023C107.011 82.7023 105.679 81.2408 105.679 79.2782C105.679 77.3156 106.953 75.8682 108.932 75.8682C110.91 75.8682 112.083 77.3156 112.083 79.2782H112.085ZM106.684 78.8907H111.126C110.983 77.6441 110.166 76.7274 108.934 76.7274C107.703 76.7274 106.829 77.6006 106.685 78.8907H106.684Z" fill="#005496"/>
<path d="M116.183 76.799H114.936V80.8534C114.936 81.5553 115.366 81.7266 115.853 81.7266H116.111C116.326 81.7266 116.441 81.8417 116.441 82.0565V82.2432C116.441 82.458 116.326 82.5731 116.111 82.5731H115.481C114.478 82.5731 113.89 82.0003 113.89 80.9966V76.799H113.303C113.088 76.799 112.973 76.6838 112.973 76.469V76.3118C112.973 76.097 113.088 75.9819 113.303 75.9819H113.89V74.3057C113.89 74.0909 114.005 73.9757 114.22 73.9757H114.607C114.822 73.9757 114.937 74.0909 114.937 74.3057V75.9819H116.184C116.399 75.9819 116.514 76.097 116.514 76.3118V76.469C116.514 76.6838 116.399 76.799 116.184 76.799H116.183Z" fill="#005496"/>
<path d="M122.601 75.9819H122.989C123.232 75.9819 123.333 76.1391 123.247 76.368L119.837 84.9499C119.765 85.1366 119.65 85.2082 119.465 85.2082H119.135C118.891 85.2082 118.777 85.051 118.863 84.8207L119.751 82.5577L117.316 76.368C117.23 76.1391 117.344 75.9819 117.588 75.9819H117.974C118.161 75.9819 118.274 76.0535 118.346 76.2402L120.281 81.1398L122.229 76.2402C122.301 76.0535 122.416 75.9819 122.601 75.9819Z" fill="#005496"/>
<path d="M128.746 75.1227V75.9819H130.164C130.379 75.9819 130.494 76.097 130.494 76.3118V76.469C130.494 76.6838 130.379 76.799 130.164 76.799H128.746V82.2432C128.746 82.458 128.631 82.5731 128.416 82.5731H128.03C127.815 82.5731 127.7 82.458 127.7 82.2432V76.799H127.113C126.898 76.799 126.783 76.6838 126.783 76.469V76.3118C126.783 76.097 126.898 75.9819 127.113 75.9819H127.7V75.0652C127.7 73.9196 128.344 73.2598 129.505 73.2598H130.323C130.537 73.2598 130.652 73.3749 130.652 73.5897V73.7764C130.652 73.9912 130.537 74.1063 130.323 74.1063H129.778C129.133 74.1063 128.746 74.4783 128.746 75.1241V75.1227Z" fill="#005496"/>
<path d="M131.11 79.2782C131.11 77.3015 132.486 75.8682 134.463 75.8682C136.439 75.8682 137.815 77.3015 137.815 79.2782C137.815 81.2549 136.439 82.7023 134.463 82.7023C132.486 82.7023 131.11 81.2408 131.11 79.2782ZM136.769 79.2782C136.769 77.8884 135.852 76.872 134.463 76.872C133.073 76.872 132.142 77.8898 132.142 79.2782C132.142 80.6666 133.073 81.6999 134.463 81.6999C135.852 81.6999 136.769 80.6681 136.769 79.2782Z" fill="#005496"/>
<path d="M142.27 75.9103C142.484 75.8822 142.614 76.01 142.614 76.2262V76.5561C142.614 76.7568 142.498 76.8719 142.298 76.886C141.353 77.0011 140.292 77.5739 140.292 79.0213V82.2446C140.292 82.4594 140.176 82.5745 139.962 82.5745H139.59C139.375 82.5745 139.26 82.4594 139.26 82.2446V76.3132C139.26 76.0984 139.375 75.9833 139.59 75.9833H139.962C140.176 75.9833 140.292 76.0984 140.292 76.3132V77.2019C140.735 76.4143 141.467 75.9987 142.268 75.9131L142.27 75.9103Z" fill="#005496"/>
<path d="M153.43 76.097C153.43 77.8168 152.17 78.9343 150.766 78.9343H147.642V82.2432C147.642 82.458 147.527 82.5731 147.312 82.5731H146.897C146.682 82.5731 146.567 82.458 146.567 82.2432V73.5897C146.567 73.3749 146.682 73.2598 146.897 73.2598H150.764C152.168 73.2598 153.429 74.3773 153.429 76.097H153.43ZM152.341 76.097C152.341 75.1087 151.625 74.3211 150.607 74.3211H147.642V77.8884H150.607C151.61 77.8884 152.341 77.1008 152.341 76.097Z" fill="#005496"/>
<path d="M160.378 79.2782C160.378 79.493 160.263 79.6081 160.048 79.6081H154.978C155.107 80.9264 156.009 81.7996 157.312 81.7996C158.129 81.7996 158.746 81.4837 159.132 81.0541C159.275 80.8969 159.418 80.8674 159.591 80.9825L159.791 81.1257C159.963 81.2549 160.006 81.4261 159.863 81.5848C159.276 82.2867 158.388 82.7023 157.312 82.7023C155.306 82.7023 153.974 81.2408 153.974 79.2782C153.974 77.3156 155.248 75.8682 157.227 75.8682C159.205 75.8682 160.378 77.3156 160.378 79.2782ZM154.978 78.8907H159.418C159.275 77.6441 158.458 76.7274 157.227 76.7274C155.995 76.7274 155.121 77.6006 154.978 78.8907Z" fill="#005496"/>
<path d="M167.628 73.2612H168.015C168.23 73.2612 168.345 73.3763 168.345 73.5911V82.2446C168.345 82.4594 168.23 82.5745 168.015 82.5745H167.628C167.413 82.5745 167.298 82.4594 167.298 82.2446V81.3854C166.797 82.173 165.966 82.6896 164.848 82.6896C162.971 82.6896 161.639 81.2422 161.639 79.2796C161.639 77.317 162.971 75.8836 164.848 75.8836C165.966 75.8836 166.797 76.3848 167.298 77.1724V73.5911C167.298 73.3763 167.413 73.2612 167.628 73.2612ZM167.298 79.2782C167.298 77.8743 166.395 76.872 164.977 76.872C163.559 76.872 162.643 77.8743 162.643 79.2782C162.643 80.6821 163.574 81.6999 164.977 81.6999C166.381 81.6999 167.298 80.6821 167.298 79.2782Z" fill="#005496"/>
<path d="M169.991 73.9336C169.991 73.5476 170.307 73.3173 170.621 73.3173C170.935 73.3173 171.251 73.5461 171.251 73.9336C171.251 74.3211 170.937 74.578 170.621 74.578C170.305 74.578 169.991 74.3197 169.991 73.9336ZM170.808 82.5731H170.436C170.221 82.5731 170.106 82.458 170.106 82.2432V76.3118C170.106 76.097 170.221 75.9819 170.436 75.9819H170.823C171.038 75.9819 171.153 76.097 171.153 76.3118L171.139 82.2432C171.139 82.458 171.024 82.5731 170.809 82.5731H170.808Z" fill="#005496"/>
<path d="M178.702 75.9819H179.089C179.304 75.9819 179.419 76.097 179.419 76.3118V82.2432C179.419 82.458 179.304 82.5731 179.089 82.5731H178.702C178.487 82.5731 178.372 82.458 178.372 82.2432V81.384C177.871 82.1716 177.04 82.6882 175.922 82.6882C174.045 82.6882 172.713 81.2408 172.713 79.2782C172.713 77.3156 174.045 75.8822 175.922 75.8822C177.04 75.8822 177.871 76.3834 178.372 77.171V76.3118C178.372 76.097 178.487 75.9819 178.702 75.9819ZM178.372 79.2782C178.372 77.8743 177.469 76.872 176.051 76.872C174.633 76.872 173.717 77.8743 173.717 79.2782C173.717 80.6821 174.647 81.6999 176.051 81.6999C177.455 81.6999 178.372 80.6821 178.372 79.2782Z" fill="#005496"/>
<path d="M183.844 76.799H182.598V80.8534C182.598 81.5553 183.027 81.7266 183.514 81.7266H183.773C183.987 81.7266 184.102 81.8417 184.102 82.0565V82.2432C184.102 82.458 183.987 82.5731 183.773 82.5731H183.142C182.14 82.5731 181.552 82.0003 181.552 80.9966V76.799H180.965C180.75 76.799 180.635 76.6838 180.635 76.469V76.3118C180.635 76.097 180.75 75.9819 180.965 75.9819H181.552V74.3057C181.552 74.0909 181.667 73.9757 181.882 73.9757H182.268C182.482 73.9757 182.598 74.0909 182.598 74.3057V75.9819H183.844C184.059 75.9819 184.174 76.097 184.174 76.3118V76.469C184.174 76.6838 184.059 76.799 183.844 76.799Z" fill="#005496"/>
<path d="M188.457 75.9103C188.672 75.8822 188.801 76.01 188.801 76.2262V76.5561C188.801 76.7568 188.686 76.8719 188.487 76.886C187.541 77.0011 186.481 77.5739 186.481 79.0213V82.2446C186.481 82.4594 186.366 82.5745 186.151 82.5745H185.779C185.564 82.5745 185.449 82.4594 185.449 82.2446V76.3132C185.449 76.0984 185.564 75.9833 185.779 75.9833H186.151C186.366 75.9833 186.481 76.0984 186.481 76.3132V77.2019C186.924 76.4143 187.656 75.9987 188.457 75.9131V75.9103Z" fill="#005496"/>
<path d="M190.032 73.9336C190.032 73.5476 190.348 73.3173 190.663 73.3173C190.977 73.3173 191.293 73.5461 191.293 73.9336C191.293 74.3211 190.979 74.578 190.663 74.578C190.347 74.578 190.032 74.3197 190.032 73.9336ZM190.85 82.5731H190.478C190.263 82.5731 190.148 82.458 190.148 82.2432V76.3118C190.148 76.097 190.263 75.9819 190.478 75.9819H190.865C191.08 75.9819 191.195 76.097 191.195 76.3118L191.181 82.2432C191.181 82.458 191.066 82.5731 190.851 82.5731H190.85Z" fill="#005496"/>
<path d="M197.811 77.5304C197.424 77.1429 196.881 76.872 196.121 76.872C194.703 76.872 193.771 77.8743 193.771 79.2782C193.771 80.6821 194.702 81.6999 196.121 81.6999C196.881 81.6999 197.425 81.4275 197.811 81.0415C197.955 80.8842 198.112 80.8702 198.27 80.9839L198.499 81.1552C198.671 81.2844 198.714 81.4556 198.571 81.6143C197.984 82.2881 197.124 82.6882 196.093 82.6882C194.116 82.6882 192.755 81.2549 192.755 79.2782C192.755 77.3015 194.115 75.8822 196.093 75.8822C197.125 75.8822 197.984 76.2837 198.571 76.9421C198.714 77.0994 198.686 77.2721 198.513 77.4012L198.27 77.5879C198.113 77.7171 197.955 77.6876 197.811 77.5304Z" fill="#005496"/>
<path d="M6.93245 90.7072H7.31992C7.53471 90.7072 7.64983 90.8223 7.64983 91.0371V96.9685C7.64983 97.1833 7.53471 97.2985 7.31992 97.2985H6.93245C6.71765 97.2985 6.60253 97.1833 6.60253 96.9685V96.1094C6.10135 96.8969 5.27025 97.4136 4.15276 97.4136C2.27577 97.4136 0.943481 95.9662 0.943481 94.0035C0.943481 92.0409 2.27577 90.6075 4.15276 90.6075C5.27025 90.6075 6.10135 91.1087 6.60253 91.8963V91.0371C6.60253 90.8223 6.71765 90.7072 6.93245 90.7072ZM6.60253 94.0021C6.60253 92.5982 5.69984 91.5959 4.28192 91.5959C2.86399 91.5959 1.94726 92.5982 1.94726 94.0021C1.94726 95.406 2.87803 96.4238 4.28192 96.4238C5.6858 96.4238 6.60253 95.406 6.60253 94.0021Z" fill="#005496"/>
<path d="M15.0693 93.2426V96.9671C15.0693 97.1819 14.9542 97.2971 14.7394 97.2971H14.3674C14.1526 97.2971 14.0375 97.1819 14.0375 96.9671V93.3858C14.0375 92.1251 13.1488 91.5088 12.1745 91.5088C11.2002 91.5088 10.3256 92.1251 10.3256 93.3858V96.9671C10.3256 97.1819 10.2105 97.2971 9.9957 97.2971H9.62368C9.40888 97.2971 9.29376 97.1819 9.29376 96.9671V91.0357C9.29376 90.8209 9.40888 90.7058 9.62368 90.7058H9.9957C10.2105 90.7058 10.3256 90.8209 10.3256 91.0357V91.5945C10.8268 90.9066 11.6298 90.6061 12.4455 90.6061C13.7637 90.6061 15.0679 91.3797 15.0679 93.2426H15.0693Z" fill="#005496"/>
<path d="M22.5198 87.9851H22.9058C23.1206 87.9851 23.2357 88.1002 23.2357 88.315V96.9685C23.2357 97.1833 23.1206 97.2985 22.9058 97.2985H22.5198C22.305 97.2985 22.1898 97.1833 22.1898 96.9685V96.1094C21.6887 96.8969 20.8576 97.4136 19.7401 97.4136C17.8631 97.4136 16.5308 95.9662 16.5308 94.0035C16.5308 92.0409 17.8631 90.6075 19.7401 90.6075C20.8576 90.6075 21.6887 91.1087 22.1898 91.8963V88.315C22.1898 88.1002 22.305 87.9851 22.5198 87.9851ZM22.1898 94.0021C22.1898 92.5982 21.2871 91.5959 19.8692 91.5959C18.4513 91.5959 17.5346 92.5982 17.5346 94.0021C17.5346 95.406 18.4653 96.4238 19.8692 96.4238C21.2731 96.4238 22.1898 95.406 22.1898 94.0021Z" fill="#005496"/>
<path d="M34.4092 97.0387L33.5781 95.0045H29.2514L28.4203 97.0387C28.3487 97.2255 28.2336 97.2971 28.0482 97.2971H27.5892C27.3449 97.2971 27.2452 97.1398 27.3309 96.9096L30.8981 88.242C30.9697 88.0553 31.0848 87.9837 31.2702 87.9837H31.5566C31.7433 87.9837 31.857 88.0553 31.9286 88.242L35.4958 96.9096C35.5815 97.1384 35.4818 97.2971 35.2375 97.2971H34.7785C34.5917 97.2971 34.478 97.2255 34.4064 97.0387H34.4092ZM33.164 94.0021L31.4021 89.6613L29.6543 94.0021H33.164Z" fill="#005496"/>
<path d="M42.2457 87.9851H42.6332C42.848 87.9851 42.9631 88.1002 42.9631 88.315V96.9685C42.9631 97.1833 42.848 97.2985 42.6332 97.2985H42.2457C42.0309 97.2985 41.9158 97.1833 41.9158 96.9685V96.1094C41.4146 96.8969 40.5835 97.4136 39.466 97.4136C37.589 97.4136 36.2567 95.9662 36.2567 94.0035C36.2567 92.0409 37.589 90.6075 39.466 90.6075C40.5835 90.6075 41.4146 91.1087 41.9158 91.8963V88.315C41.9158 88.1002 42.0309 87.9851 42.2457 87.9851ZM41.9172 94.0021C41.9172 92.5982 41.0145 91.5959 39.5966 91.5959C38.1787 91.5959 37.2619 92.5982 37.2619 94.0021C37.2619 95.406 38.1927 96.4238 39.5966 96.4238C41.0005 96.4238 41.9172 95.406 41.9172 94.0021Z" fill="#005496"/>
<path d="M44.4091 94.0021C44.4091 92.0255 45.7849 90.5921 47.7616 90.5921C49.7382 90.5921 51.114 92.0255 51.114 94.0021C51.114 95.9788 49.7382 97.4262 47.7616 97.4262C45.7849 97.4262 44.4091 95.9648 44.4091 94.0021ZM50.0681 94.0021C50.0681 92.6123 49.1514 91.5959 47.7616 91.5959C46.3717 91.5959 45.4409 92.6137 45.4409 94.0021C45.4409 95.3906 46.3717 96.4238 47.7616 96.4238C49.1514 96.4238 50.0681 95.392 50.0681 94.0021Z" fill="#005496"/>
<path d="M53.2634 97.2971H52.8913C52.6766 97.2971 52.5614 97.1819 52.5614 96.9671V88.3136C52.5614 88.0988 52.6766 87.9837 52.8913 87.9837H53.2634C53.4782 87.9837 53.5933 88.0988 53.5933 88.3136V96.9671C53.5933 97.1819 53.4782 97.2971 53.2634 97.2971Z" fill="#005496"/>
<path d="M61.4578 94.0021C61.4578 94.2169 61.3427 94.332 61.1279 94.332H56.0571C56.1863 95.6503 57.089 96.5235 58.3918 96.5235C59.2088 96.5235 59.8251 96.2076 60.2112 95.778C60.3544 95.6208 60.4976 95.5913 60.6703 95.7064L60.871 95.8496C61.0423 95.9788 61.0858 96.1501 60.9426 96.3087C60.3558 97.0107 59.4671 97.4262 58.3918 97.4262C56.3856 97.4262 55.0533 95.9648 55.0533 94.0021C55.0533 92.0395 56.3281 90.5921 58.3061 90.5921C60.2842 90.5921 61.4578 92.0395 61.4578 94.0021ZM56.0571 93.6147H60.4976C60.3544 92.368 59.5373 91.4513 58.3061 91.4513C57.0749 91.4513 56.2003 92.3245 56.0571 93.6147Z" fill="#005496"/>
<path d="M62.7031 95.778L62.8898 95.6629C63.0765 95.5478 63.2057 95.6054 63.3334 95.778C63.6633 96.2371 64.3653 96.6091 65.2245 96.6091C66.2423 96.6091 66.7715 96.2371 66.7715 95.4917C66.7715 94.6606 65.5825 94.4738 64.9661 94.3026C64.3498 94.1313 62.6736 93.8154 62.6736 92.4396C62.6736 91.207 63.7335 90.5767 65.1669 90.5767C66.3279 90.5767 67.159 91.0203 67.5591 91.6085C67.6742 91.7798 67.6167 91.9244 67.43 92.0381L67.2432 92.1532C67.0565 92.2683 66.9428 92.2108 66.7996 92.0381C66.4837 91.6941 65.8688 91.4078 65.1374 91.4078C64.2067 91.4078 63.69 91.7798 63.69 92.3961C63.69 93.1696 64.7794 93.3423 65.3943 93.5136C66.0092 93.6849 67.7725 94.0442 67.7725 95.4622C67.7725 96.7804 66.8417 97.4683 65.2076 97.4683C63.8753 97.4683 62.9726 96.9531 62.5571 96.2217C62.4574 96.035 62.5136 95.8918 62.7003 95.778H62.7031Z" fill="#005496"/>
<path d="M73.9496 92.2543C73.5621 91.8668 73.0188 91.5959 72.2593 91.5959C70.8414 91.5959 69.9092 92.5983 69.9092 94.0021C69.9092 95.406 70.84 96.4238 72.2593 96.4238C73.0188 96.4238 73.5635 96.1515 73.9496 95.7654C74.0928 95.6082 74.25 95.5941 74.4087 95.7079L74.6375 95.8791C74.8088 96.0083 74.8523 96.1796 74.7091 96.3382C74.1223 97.0121 73.2617 97.4122 72.2313 97.4122C70.2546 97.4122 68.8928 95.9788 68.8928 94.0021C68.8928 92.0255 70.2532 90.6061 72.2313 90.6061C73.2631 90.6061 74.1223 91.0077 74.7091 91.6661C74.8523 91.8233 74.8242 91.996 74.6515 92.1251L74.4087 92.3119C74.2514 92.441 74.0928 92.4115 73.9496 92.2543Z" fill="#005496"/>
<path d="M82.2873 94.0021C82.2873 94.2169 82.1722 94.332 81.9574 94.332H76.8851C77.0143 95.6503 77.917 96.5235 79.2198 96.5235C80.0368 96.5235 80.6531 96.2076 81.0392 95.778C81.1824 95.6208 81.3256 95.5913 81.4983 95.7064L81.699 95.8496C81.8703 95.9788 81.9138 96.1501 81.7706 96.3087C81.1838 97.0107 80.2952 97.4262 79.2198 97.4262C77.2136 97.4262 75.8813 95.9648 75.8813 94.0021C75.8813 92.0395 77.1561 90.5921 79.1341 90.5921C81.1122 90.5921 82.2859 92.0395 82.2859 94.0021H82.2873ZM76.8865 93.6147H81.3284C81.1852 92.368 80.3682 91.4513 79.137 91.4513C77.9057 91.4513 77.0311 92.3245 76.8879 93.6147H76.8865Z" fill="#005496"/>
<path d="M89.5229 93.2426V96.9671C89.5229 97.1819 89.4078 97.2971 89.193 97.2971H88.8209C88.6061 97.2971 88.491 97.1819 88.491 96.9671V93.3858C88.491 92.1251 87.6024 91.5088 86.6281 91.5088C85.6538 91.5088 84.7806 92.1251 84.7806 93.3858V96.9671C84.7806 97.1819 84.6655 97.2971 84.4507 97.2971H84.0786C83.8638 97.2971 83.7487 97.1819 83.7487 96.9671V91.0357C83.7487 90.8209 83.8638 90.7058 84.0786 90.7058H84.4507C84.6655 90.7058 84.7806 90.8209 84.7806 91.0357V91.5945C85.2818 90.9066 86.0848 90.6061 86.9004 90.6061C88.2187 90.6061 89.5215 91.3797 89.5215 93.2426H89.5229Z" fill="#005496"/>
<path d="M93.9058 91.5229H92.6592V95.5773C92.6592 96.2792 93.0888 96.4505 93.5759 96.4505H93.8342C94.049 96.4505 94.1641 96.5656 94.1641 96.7804V96.9671C94.1641 97.1819 94.049 97.297 93.8342 97.297H93.2039C92.2015 97.297 91.6133 96.7243 91.6133 95.7205V91.5229H91.0264C90.8116 91.5229 90.6965 91.4078 90.6965 91.193V91.0357C90.6965 90.8209 90.8116 90.7058 91.0264 90.7058H91.6133V89.0296C91.6133 88.8148 91.7284 88.6997 91.9432 88.6997H92.3306C92.5454 88.6997 92.6606 88.8148 92.6606 89.0296V90.7058H93.9072C94.122 90.7058 94.2371 90.8209 94.2371 91.0357V91.193C94.2371 91.4078 94.122 91.5229 93.9072 91.5229H93.9058Z" fill="#005496"/>
<path d="M105.983 92.6404C105.983 95.406 104.136 97.2971 101.384 97.2971H98.5625C98.3477 97.2971 98.2326 97.1819 98.2326 96.9671V88.3136C98.2326 88.0988 98.3477 87.9837 98.5625 87.9837H101.384C104.135 87.9837 105.983 89.8747 105.983 92.6404ZM104.894 92.6404C104.894 90.2046 103.146 89.045 101.384 89.045H99.3065V96.2371H101.384C103.146 96.2371 104.894 95.0761 104.894 92.6404Z" fill="#005496"/>
<path d="M107.415 88.6576C107.415 88.2715 107.731 88.0413 108.046 88.0413C108.36 88.0413 108.676 88.2701 108.676 88.6576C108.676 89.045 108.362 89.3019 108.046 89.3019C107.73 89.3019 107.415 89.0436 107.415 88.6576ZM108.232 97.2971H107.86C107.646 97.2971 107.53 97.1819 107.53 96.9671V91.0357C107.53 90.8209 107.646 90.7058 107.86 90.7058H108.248C108.463 90.7058 108.578 90.8209 108.578 91.0357L108.564 96.9671C108.564 97.1819 108.449 97.2971 108.234 97.2971H108.232Z" fill="#005496"/>
<path d="M116.126 90.7072H116.514C116.729 90.7072 116.844 90.8223 116.844 91.0371V96.9685C116.844 97.1833 116.729 97.2985 116.514 97.2985H116.126C115.912 97.2985 115.797 97.1833 115.797 96.9685V96.1094C115.295 96.8969 114.464 97.4136 113.347 97.4136C111.47 97.4136 110.138 95.9662 110.138 94.0035C110.138 92.0409 111.47 90.6075 113.347 90.6075C114.464 90.6075 115.295 91.1087 115.797 91.8963V91.0371C115.797 90.8223 115.912 90.7072 116.126 90.7072ZM115.797 94.0021C115.797 92.5982 114.894 91.5959 113.476 91.5959C112.058 91.5959 111.141 92.5982 111.141 94.0021C111.141 95.406 112.072 96.4238 113.476 96.4238C114.88 96.4238 115.797 95.406 115.797 94.0021Z" fill="#005496"/>
<path d="M125.194 94.0021C125.194 95.9648 123.848 97.4122 121.971 97.4122C120.853 97.4122 120.022 96.8969 119.521 96.108V96.9671C119.521 97.1819 119.406 97.2971 119.191 97.2971H118.819C118.604 97.2971 118.489 97.1819 118.489 96.9671V88.3136C118.489 88.0988 118.604 87.9837 118.819 87.9837H119.191C119.406 87.9837 119.521 88.0988 119.521 88.3136V91.8949C120.022 91.1073 120.853 90.6061 121.971 90.6061C123.848 90.6061 125.194 92.0241 125.194 94.0021ZM124.178 94.0021C124.178 92.5983 123.247 91.5959 121.843 91.5959C120.439 91.5959 119.522 92.5983 119.522 94.0021C119.522 95.406 120.439 96.4238 121.843 96.4238C123.247 96.4238 124.178 95.406 124.178 94.0021Z" fill="#005496"/>
<path d="M132.845 94.0021C132.845 94.2169 132.73 94.332 132.515 94.332H127.443C127.572 95.6503 128.475 96.5235 129.778 96.5235C130.595 96.5235 131.211 96.2076 131.597 95.778C131.74 95.6208 131.884 95.5913 132.056 95.7064L132.257 95.8496C132.428 95.9788 132.472 96.1501 132.329 96.3087C131.742 97.0107 130.853 97.4262 129.778 97.4262C127.772 97.4262 126.439 95.9648 126.439 94.0021C126.439 92.0395 127.714 90.5921 129.692 90.5921C131.67 90.5921 132.844 92.0395 132.844 94.0021H132.845ZM127.443 93.6147H131.885C131.742 92.368 130.925 91.4513 129.694 91.4513C128.462 91.4513 127.588 92.3245 127.445 93.6147H127.443Z" fill="#005496"/>
<path d="M136.942 91.5229H135.695V95.5773C135.695 96.2792 136.125 96.4505 136.612 96.4505H136.87C137.085 96.4505 137.2 96.5656 137.2 96.7804V96.9671C137.2 97.1819 137.085 97.297 136.87 97.297H136.24C135.238 97.297 134.649 96.7243 134.649 95.7205V91.5229H134.062C133.848 91.5229 133.733 91.4078 133.733 91.193V91.0357C133.733 90.8209 133.848 90.7058 134.062 90.7058H134.649V89.0296C134.649 88.8148 134.764 88.6997 134.979 88.6997H135.365C135.58 88.6997 135.695 88.8148 135.695 89.0296V90.7058H136.942C137.157 90.7058 137.272 90.8209 137.272 91.0357V91.193C137.272 91.4078 137.157 91.5229 136.942 91.5229Z" fill="#005496"/>
<path d="M144.42 94.0021C144.42 94.2169 144.305 94.332 144.09 94.332H139.018C139.147 95.6503 140.05 96.5235 141.353 96.5235C142.17 96.5235 142.786 96.2076 143.172 95.778C143.315 95.6208 143.459 95.5913 143.631 95.7064L143.832 95.8496C144.003 95.9788 144.047 96.1501 143.904 96.3087C143.317 97.0107 142.428 97.4262 141.353 97.4262C139.347 97.4262 138.014 95.9648 138.014 94.0021C138.014 92.0395 139.289 90.5921 141.267 90.5921C143.245 90.5921 144.419 92.0395 144.419 94.0021H144.42ZM139.018 93.6147H143.46C143.317 92.368 142.5 91.4513 141.269 91.4513C140.037 91.4513 139.163 92.3245 139.02 93.6147H139.018Z" fill="#005496"/>
<path d="M145.667 95.778L145.854 95.6629C146.04 95.5478 146.168 95.6054 146.297 95.778C146.627 96.2371 147.329 96.6091 148.188 96.6091C149.206 96.6091 149.735 96.2371 149.735 95.4917C149.735 94.6606 148.546 94.4738 147.93 94.3026C147.314 94.1313 145.637 93.8154 145.637 92.4396C145.637 91.207 146.697 90.5767 148.131 90.5767C149.292 90.5767 150.122 91.0203 150.523 91.6085C150.638 91.7798 150.581 91.9244 150.394 92.0381L150.207 92.1532C150.02 92.2683 149.907 92.2108 149.764 92.0381C149.448 91.6941 148.833 91.4078 148.101 91.4078C147.171 91.4078 146.654 91.7798 146.654 92.3961C146.654 93.1696 147.743 93.3423 148.358 93.5136C148.973 93.6849 150.736 94.0442 150.736 95.4622C150.736 96.7804 149.806 97.4683 148.172 97.4683C146.839 97.4683 145.937 96.9531 145.521 96.2217C145.421 96.035 145.477 95.8918 145.664 95.778H145.667Z" fill="#005496"/>
</svg>
