<svg xmlns="http://www.w3.org/2000/svg" xmlns:xlink="http://www.w3.org/1999/xlink" width="280" zoomAndPan="magnify" viewBox="0 0 210 225" height="300" preserveAspectRatio="xMidYMid meet" version="1.0"><defs><clipPath id="97012a2218"><path d="M 0 7.5 L 210 7.5 L 210 217.5 L 0 217.5 Z M 0 7.5 " clip-rule="nonzero"/></clipPath><clipPath id="3414fb7a56"><path d="M 105 7.5 C 47.011719 7.5 0 54.511719 0 112.5 C 0 170.488281 47.011719 217.5 105 217.5 C 162.988281 217.5 210 170.488281 210 112.5 C 210 54.511719 162.988281 7.5 105 7.5 Z M 105 7.5 " clip-rule="nonzero"/></clipPath><clipPath id="ec9cd34bd8"><path d="M 37 21 L 189.34375 21 L 189.34375 194 L 37 194 Z M 37 21 " clip-rule="nonzero"/></clipPath></defs><rect x="-21" width="252" fill="#ffffff" y="-22.5" height="270" fill-opacity="1"/><rect x="-21" width="252" fill="#ffffff" y="-22.5" height="270" fill-opacity="1"/><g clip-path="url(#97012a2218)"><g clip-path="url(#3414fb7a56)"><path fill="#a7ebeb" d="M 0 7.5 L 210 7.5 L 210 217.5 L 0 217.5 Z M 0 7.5 " fill-opacity="1" fill-rule="nonzero"/></g></g><g clip-path="url(#ec9cd34bd8)"><path fill="#ff5757" d="M 188.273438 193.753906 C 188.273438 193.703125 188.4375 193.597656 188.640625 193.519531 C 188.839844 193.441406 189.003906 193.484375 189.003906 193.613281 C 189.003906 193.746094 188.839844 193.851562 188.640625 193.851562 C 188.4375 193.851562 188.273438 193.808594 188.273438 193.753906 Z M 70.375 190.109375 C 65.402344 188.257812 56.824219 182.511719 47.816406 174.992188 C 43.667969 171.53125 38.3125 166.292969 37.671875 165.078125 C 36.347656 162.550781 37.484375 150.972656 40.402344 137.277344 C 41.964844 129.949219 42.417969 128.523438 43.539062 127.402344 C 44.605469 126.335938 47.28125 124.933594 51.277344 123.347656 C 57.746094 120.78125 71.292969 116.578125 77.558594 115.191406 C 80.304688 114.582031 80.746094 114.546875 82.191406 114.792969 C 87.097656 115.640625 94.617188 120.585938 102.996094 128.480469 C 105.773438 131.097656 107.867188 134.617188 109.386719 139.230469 C 109.761719 140.371094 110.089844 141.332031 110.117188 141.367188 C 110.144531 141.402344 112.625 141.707031 115.632812 142.046875 C 126.667969 143.289062 132.558594 144.363281 135.035156 145.574219 C 137.757812 146.910156 140.230469 150.160156 141.566406 154.164062 C 142.242188 156.1875 142.914062 160.070312 142.917969 161.96875 L 142.917969 163.128906 L 140.625 163.128906 L 141.632812 164.164062 C 143.339844 165.914062 143.976562 167.492188 144.09375 170.246094 C 144.175781 172.167969 144.097656 172.933594 143.671875 174.332031 L 143.148438 176.050781 L 119.320312 176.058594 L 95.492188 176.070312 L 92.078125 179.015625 C 85.828125 184.410156 80.945312 187.941406 77.304688 189.703125 C 75.511719 190.570312 75.082031 190.679688 73.558594 190.667969 C 72.402344 190.660156 71.359375 190.476562 70.375 190.113281 Z M 75.496094 185.417969 C 77.640625 184.320312 81.183594 181.835938 85.160156 178.644531 L 88.242188 176.171875 L 80.832031 176.109375 L 73.421875 176.042969 L 73.421875 171.417969 L 139.503906 171.417969 L 139.503906 170.746094 C 139.5 169.652344 139.039062 168.3125 138.40625 167.558594 C 138.078125 167.171875 136.273438 165.964844 134.390625 164.882812 L 130.96875 162.90625 L 102.835938 162.53125 C 87.359375 162.320312 73.316406 162.152344 71.621094 162.152344 L 68.542969 162.152344 L 68.542969 157.519531 L 71.410156 157.523438 C 72.984375 157.527344 85.796875 157.6875 99.878906 157.882812 C 113.960938 158.078125 128.246094 158.242188 131.625 158.246094 L 137.765625 158.25 L 137.289062 156.523438 C 136.355469 153.152344 134.757812 150.667969 132.921875 149.71875 C 130.507812 148.476562 118.476562 146.804688 99.636719 145.089844 C 91.785156 144.378906 76.292969 143.132812 75.273438 143.132812 C 74.785156 143.132812 74.765625 143.03125 74.847656 140.875 C 74.894531 139.636719 74.96875 138.585938 75.007812 138.542969 C 75.046875 138.5 76.378906 138.566406 77.96875 138.683594 C 79.558594 138.804688 80.886719 138.886719 80.917969 138.867188 C 80.949219 138.847656 80.59375 138.070312 80.128906 137.140625 C 79.160156 135.195312 78.726562 133.574219 79.292969 134.007812 L 82.871094 136.769531 L 86.101562 139.269531 L 92.988281 139.851562 C 96.777344 140.171875 100.964844 140.546875 102.292969 140.6875 C 103.621094 140.828125 104.761719 140.890625 104.824219 140.828125 C 104.992188 140.660156 103.996094 138.214844 102.851562 135.976562 C 101.722656 133.761719 99.617188 131.511719 95.613281 128.234375 C 88.648438 122.53125 83.414062 119.234375 81.324219 119.234375 C 80.140625 119.234375 72.050781 121.339844 65.863281 123.261719 C 58.976562 125.398438 53.21875 127.5 49.820312 129.117188 C 47.464844 130.242188 47.023438 130.546875 46.738281 131.234375 C 46.140625 132.664062 44.089844 142.601562 42.96875 149.472656 C 42.410156 152.890625 41.722656 159.164062 41.722656 160.820312 C 41.722656 162.429688 41.789062 162.65625 42.539062 163.640625 C 44.65625 166.40625 56.292969 176.132812 62.328125 180.171875 C 67.042969 183.332031 72.425781 186.265625 73.542969 186.285156 C 73.679688 186.289062 74.554688 185.898438 75.496094 185.417969 Z M 148.648438 141.261719 C 147.710938 141.226562 143.757812 141.078125 139.871094 140.933594 C 135.980469 140.789062 132.085938 140.5625 131.214844 140.425781 C 127.34375 139.828125 120.476562 135.320312 110.835938 127.042969 C 104.128906 121.285156 103.601562 120.617188 102.765625 116.753906 C 101.828125 112.433594 102.675781 98.539062 104.054688 95.652344 C 104.84375 94 106.425781 92.628906 108.613281 91.707031 C 109.574219 91.300781 110.34375 90.878906 110.320312 90.773438 C 110.296875 90.667969 109.378906 88.992188 108.285156 87.046875 C 104.988281 81.1875 101.144531 73.765625 99.066406 69.238281 C 93.253906 56.574219 91.160156 48.734375 92.21875 43.59375 C 92.902344 40.269531 95.683594 36.210938 98.519531 34.386719 C 99.625 33.679688 99.730469 33.523438 100.113281 31.992188 C 101.222656 27.574219 104.992188 23.492188 109.742188 21.5625 C 110.589844 21.214844 111.363281 21.023438 111.460938 21.132812 C 111.554688 21.242188 117.46875 32.242188 124.601562 45.582031 C 131.730469 58.917969 137.621094 69.886719 137.691406 69.953125 C 137.757812 70.019531 138.160156 69.871094 138.585938 69.617188 C 139.089844 69.320312 140 69.125 141.199219 69.054688 C 144.257812 68.878906 147.609375 70.246094 153.039062 73.882812 C 157.828125 77.089844 164.714844 82.78125 165.699219 84.335938 C 167.359375 86.964844 169.175781 94.332031 170.824219 105.09375 C 171.902344 112.140625 172.476562 117.550781 172.511719 121.066406 C 172.542969 124.222656 172.503906 124.5625 171.964844 125.574219 C 170.574219 128.21875 165.890625 133.035156 159.460938 138.4375 L 155.90625 141.425781 L 153.128906 141.378906 C 151.605469 141.351562 149.585938 141.300781 148.648438 141.265625 Z M 155.980469 135.1875 C 161.796875 130.359375 166.742188 125.425781 167.625 123.558594 C 167.957031 122.863281 167.976562 122.296875 167.773438 119.589844 C 166.984375 108.984375 164.152344 92.769531 162.292969 88.1875 C 161.671875 86.660156 161.339844 86.320312 157.003906 82.746094 C 150.601562 77.46875 144.171875 73.636719 141.726562 73.636719 C 141.34375 73.636719 140.507812 73.925781 139.871094 74.285156 C 139.230469 74.640625 137.601562 75.492188 136.25 76.175781 C 134.128906 77.246094 133.769531 77.515625 133.625 78.148438 C 133.53125 78.550781 133.328125 82.609375 133.171875 87.167969 C 133.015625 91.730469 132.628906 101.382812 132.308594 108.621094 C 131.992188 115.859375 131.777344 121.832031 131.832031 121.886719 C 132.03125 122.085938 135.359375 121.421875 136.722656 120.914062 C 138.625 120.203125 139.796875 118.964844 140.3125 117.140625 C 140.867188 115.152344 141.605469 110.160156 142.050781 105.335938 C 142.359375 101.964844 143.164062 90.597656 143.164062 89.554688 C 143.164062 89.203125 144.75 89.136719 146.695312 89.402344 L 147.859375 89.5625 L 147.683594 93.085938 L 147.507812 96.613281 L 148.683594 95.714844 C 149.328125 95.222656 149.898438 94.9375 149.945312 95.082031 C 150.050781 95.394531 148.773438 98.1875 147.816406 99.726562 C 147.199219 100.726562 147.113281 101.164062 146.84375 104.605469 C 146.222656 112.65625 145.179688 118.515625 143.984375 120.710938 C 142.640625 123.179688 140.121094 124.9375 136.617188 125.847656 C 134.488281 126.402344 130.265625 126.703125 128.214844 126.445312 L 126.824219 126.273438 L 126.824219 124.828125 C 126.824219 124.03125 126.792969 123.378906 126.75 123.378906 C 126.707031 123.378906 125.914062 123.753906 124.980469 124.210938 C 123.550781 124.910156 121.980469 125.457031 118.328125 126.523438 C 117.8125 126.671875 118.011719 126.886719 120.371094 128.730469 C 123.613281 131.261719 128.785156 134.761719 130.207031 135.394531 C 130.988281 135.738281 132.230469 135.929688 134.839844 136.09375 C 138.300781 136.316406 147.703125 136.679688 151.957031 136.753906 L 154.050781 136.792969 Z M 115.730469 118.230469 L 115.910156 112.097656 L 117.984375 109.0625 C 120.523438 105.339844 122.765625 101.054688 123.15625 99.164062 C 123.398438 98 123.386719 97.429688 123.082031 95.949219 C 122.773438 94.433594 121.242188 90.164062 120.878906 89.796875 C 120.816406 89.738281 119.796875 90.476562 118.613281 91.445312 C 116.964844 92.789062 115.535156 93.648438 112.507812 95.121094 C 110.332031 96.179688 108.449219 97.238281 108.328125 97.472656 C 107.824219 98.425781 107.199219 105.519531 107.199219 110.335938 C 107.191406 117.578125 107.320312 117.859375 112.527344 122.324219 C 113.984375 123.570312 115.261719 124.539062 115.363281 124.476562 C 115.464844 124.414062 115.628906 121.601562 115.730469 118.230469 Z M 122.050781 120.441406 C 123.75 119.804688 124.371094 119.058594 126.011719 115.699219 L 127.324219 113.015625 L 127.554688 108.261719 C 127.683594 105.648438 127.835938 102.628906 127.894531 101.554688 L 128 99.605469 L 127.417969 101.441406 C 126.648438 103.871094 124.796875 107.441406 122.496094 110.921875 L 120.628906 113.75 L 120.496094 117.34375 C 120.421875 119.324219 120.441406 120.941406 120.535156 120.941406 C 120.632812 120.941406 121.3125 120.714844 122.050781 120.441406 Z M 128.527344 85.828125 C 128.804688 77.488281 128.835938 77.125 129.410156 75.847656 C 130.082031 74.359375 130.128906 74.441406 128.132812 73.492188 C 127.449219 73.164062 126.71875 72.960938 126.515625 73.039062 C 125.785156 73.320312 124.09375 77.585938 123.265625 81.234375 L 122.84375 83.101562 L 124.464844 86.355469 C 126.035156 89.5 127.777344 94.179688 127.820312 95.371094 C 127.839844 95.875 127.871094 95.851562 128.042969 95.214844 C 128.152344 94.8125 128.371094 90.589844 128.527344 85.828125 Z M 116.449219 87.0625 C 117.402344 86.253906 117.417969 86.214844 118.167969 82.511719 L 118.929688 78.773438 L 113.539062 67.972656 C 106.535156 53.945312 102.867188 45.964844 100.386719 39.375 C 100.21875 38.929688 100.132812 38.96875 99.347656 39.863281 C 98.292969 41.066406 97.246094 43.109375 96.820312 44.796875 C 95.753906 49.027344 99.710938 60.546875 107.21875 75.0625 C 109.488281 79.449219 113.972656 87.597656 114.457031 88.210938 C 114.722656 88.550781 114.609375 88.617188 116.445312 87.0625 Z M 121.550781 71.746094 C 122.011719 70.867188 123.585938 69.300781 124.507812 68.8125 C 124.976562 68.566406 125.835938 68.429688 126.898438 68.4375 C 128.328125 68.445312 128.820312 68.578125 130.492188 69.410156 C 131.558594 69.9375 132.433594 70.359375 132.433594 70.347656 C 132.433594 70.21875 109.433594 27.378906 109.285156 27.230469 C 108.941406 26.878906 106.015625 30.023438 105.296875 31.515625 C 104.382812 33.40625 104.179688 35.566406 104.757812 37.328125 C 105.488281 39.558594 107.035156 43.339844 108.941406 47.546875 C 110.691406 51.410156 120.988281 72.417969 121.132812 72.417969 C 121.171875 72.417969 121.359375 72.117188 121.550781 71.746094 Z M 121.550781 71.746094 " fill-opacity="1" fill-rule="nonzero"/></g></svg>